<svg xmlns="http://www.w3.org/2000/svg" width="50.221" height="33.224" viewBox="0 0 50.221 33.224">
  <g id="Grupo_18" data-name="Grupo 18" transform="translate(1591.521 359.08)" opacity="0.14">
    <g id="noun_Cloud_2876521" transform="translate(-1591.521 -359.08)">
      <path id="Trazado_1" data-name="Trazado 1" d="M20.283,50.324H48.891a10.809,10.809,0,1,0,0-21.618H46.16a13.5,13.5,0,0,0-26.735.033,10.809,10.809,0,0,0,.858,21.584Zm0-18.273h2.33l.033-1.639a10.146,10.146,0,1,1,20.292,0l.032,1.639h5.92a7.464,7.464,0,0,1,0,14.928H20.283a7.464,7.464,0,1,1,0-14.928Z" transform="translate(-9.479 -17.1)" fill="#fff"/>
    </g>
  </g>
</svg>
